HIERARCHY
ROOT hip
{
  OFFSET 0 0 0
  CHANNELS 6 Xposition Yposition Zposition Zrotation Yrotation Xrotation
  JOINT abdomen
  {
    OFFSET 0 20.6881 -0.73152
    CHANNELS 3 Zrotation Xrotation Yrotation
    JOINT chest
    {
      OFFSET 0 11.7043 -0.48768
      CHANNELS 3 Zrotation Xrotation Yrotation
      JOINT neck
      {
        OFFSET 0 22.1894 -2.19456
        CHANNELS 3 Zrotation Xrotation Yrotation
        JOINT head
        {
          OFFSET -0.24384 7.07133 1.2192
          CHANNELS 3 Zrotation Xrotation Yrotation
          JOINT leftEye
          {
            OFFSET 4.14528 8.04674 8.04672
            CHANNELS 3 Zrotation Xrotation Yrotation
            End Site
            {
              OFFSET 1 0 0
            }
          }
          JOINT rightEye
          {
            OFFSET -3.6576 8.04674 8.04672
            CHANNELS 3 Zrotation Xrotation Yrotation
            End Site
            {
              OFFSET 1 0 0
            }
          }
        }
      }
      JOINT rCollar
      {
        OFFSET -2.68224 19.2634 -4.8768
        CHANNELS 3 Zrotation Xrotation Yrotation
        JOINT rShldr
        {
          OFFSET -8.77824 -1.95073 1.46304
          CHANNELS 3 Zrotation Xrotation Yrotation
          JOINT rForeArm
          {
            OFFSET -28.1742 -1.7115 0.48768
            CHANNELS 3 Zrotation Xrotation Yrotation
            JOINT rHand
            {
              OFFSET -22.5879 0.773209 7.07136
              CHANNELS 3 Zrotation Xrotation Yrotation
              JOINT rThumb1
              {
                OFFSET -1.2192 -0.487915 3.41376
                CHANNELS 3 Zrotation Xrotation Yrotation
                JOINT rThumb2
                {
                  OFFSET -3.37035 -0.52449 3.41376
                  CHANNELS 3 Zrotation Xrotation Yrotation
                  End Site
                  {
                    OFFSET -1.78271 -1.18214 1.43049
                  }
                }
              }
              JOINT rIndex1
              {
                OFFSET -7.75947 0.938293 5.60832
                CHANNELS 3 Zrotation Xrotation Yrotation
                JOINT rIndex2
                {
                  OFFSET -2.54057 -0.884171 1.56538
                  CHANNELS 3 Zrotation Xrotation Yrotation
                  End Site
                  {
                    OFFSET -1.62519 -0.234802 1.16502
                  }
                }
              }
              JOINT rMid1
              {
                OFFSET -8.24714 1.18213 3.41376
                CHANNELS 3 Zrotation Xrotation Yrotation
                JOINT rMid2
                {
                  OFFSET -3.10165 -0.590103 1.0647
                  CHANNELS 3 Zrotation Xrotation Yrotation
                  End Site
                  {
                    OFFSET -2.48547 -0.328903 0.83742
                  }
                }
              }
              JOINT rRing1
              {
                OFFSET -8.82822 0.546677 1.51678
                CHANNELS 3 Zrotation Xrotation Yrotation
                JOINT rRing2
                {
                  OFFSET -2.60934 -0.819778 -0.0198488
                  CHANNELS 3 Zrotation Xrotation Yrotation
                  End Site
                  {
                    OFFSET -2.33842 -0.294052 0.168128
                  }
                }
              }
              JOINT rPinky1
              {
                OFFSET -8.27202 -0.0477905 -0.4584
                CHANNELS 3 Zrotation Xrotation Yrotation
                JOINT rPinky2
                {
                  OFFSET -1.82734 -0.647385 -0.700984
                  CHANNELS 3 Zrotation Xrotation Yrotation
                  End Site
                  {
                    OFFSET -1.69225 -0.51767 -0.607171
                  }
                }
              }
            }
          }
        }
      }
      JOINT lCollar
      {
        OFFSET 2.68224 19.2634 -4.8768
        CHANNELS 3 Zrotation Xrotation Yrotation
        JOINT lShldr
        {
          OFFSET 8.77824 -1.95073 1.46304
          CHANNELS 3 Zrotation Xrotation Yrotation
          JOINT lForeArm
          {
            OFFSET 28.1742 -1.7115 0.48768
            CHANNELS 3 Zrotation Xrotation Yrotation
            JOINT lHand
            {
              OFFSET 22.5879 0.773209 7.07136
              CHANNELS 3 Zrotation Xrotation Yrotation
              JOINT lThumb1
              {
                OFFSET 1.2192 -0.487915 3.41376
                CHANNELS 3 Zrotation Xrotation Yrotation
                JOINT lThumb2
                {
                  OFFSET 3.37035 -0.52449 3.41376
                  CHANNELS 3 Zrotation Xrotation Yrotation
                  End Site
                  {
                    OFFSET 1.78271 -1.18214 1.43049
                  }
                }
              }
              JOINT lIndex1
              {
                OFFSET 7.75947 0.938293 5.60832
                CHANNELS 3 Zrotation Xrotation Yrotation
                JOINT lIndex2
                {
                  OFFSET 2.54057 -0.884171 1.56538
                  CHANNELS 3 Zrotation Xrotation Yrotation
                  End Site
                  {
                    OFFSET 1.62519 -0.234802 1.16502
                  }
                }
              }
              JOINT lMid1
              {
                OFFSET 8.24714 1.18213 3.41376
                CHANNELS 3 Zrotation Xrotation Yrotation
                JOINT lMid2
                {
                  OFFSET 3.10165 -0.590103 1.0647
                  CHANNELS 3 Zrotation Xrotation Yrotation
                  End Site
                  {
                    OFFSET 2.48547 -0.328903 0.83742
                  }
                }
              }
              JOINT lRing1
              {
                OFFSET 8.82822 0.546677 1.51678
                CHANNELS 3 Zrotation Xrotation Yrotation
                JOINT lRing2
                {
                  OFFSET 2.60934 -0.819778 -0.0198488
                  CHANNELS 3 Zrotation Xrotation Yrotation
                  End Site
                  {
                    OFFSET 2.33842 -0.294052 0.168128
                  }
                }
              }
              JOINT lPinky1
              {
                OFFSET 8.27202 -0.0477905 -0.4584
                CHANNELS 3 Zrotation Xrotation Yrotation
                JOINT lPinky2
                {
                  OFFSET 1.82734 -0.647385 -0.700984
                  CHANNELS 3 Zrotation Xrotation Yrotation
                  End Site
                  {
                    OFFSET 1.69225 -0.51767 -0.607171
                  }
                }
              }
            }
          }
        }
      }
    }
  }
  JOINT rButtock
  {
    OFFSET -8.77824 4.35084 1.2192
    CHANNELS 3 Zrotation Xrotation Yrotation
    JOINT rThigh
    {
      OFFSET 0 -1.70687 -2.19456
      CHANNELS 3 Zrotation Xrotation Yrotation
      JOINT rShin
      {
        OFFSET 0 -36.8199 0.73152
        CHANNELS 3 Zrotation Xrotation Yrotation
        JOINT rFoot
        {
          OFFSET 0.73152 -45.1104 -5.12064
          CHANNELS 3 Zrotation Xrotation Yrotation
          End Site
          {
            OFFSET -1.1221 -3.69964 12.103
          }
        }
      }
    }
  }
  JOINT lButtock
  {
    OFFSET 8.77824 4.35084 1.2192
    CHANNELS 3 Zrotation Xrotation Yrotation
    JOINT lThigh
    {
      OFFSET 0 -1.70687 -2.19456
      CHANNELS 3 Zrotation Xrotation Yrotation
      JOINT lShin
      {
        OFFSET 0 -36.8199 0.73152
        CHANNELS 3 Zrotation Xrotation Yrotation
        JOINT lFoot
        {
          OFFSET -0.73152 -45.1104 -5.12064
          CHANNELS 3 Zrotation Xrotation Yrotation
          End Site
          {
            OFFSET 1.1221 -3.69964 12.103
          }
        }
      }
    }
  }
}
MOTION
Frames:	4
Frame Time:	0.03333
3.180511021055281 2.414682388305664 -61.79001610726118 -8.272292017936707 -20.352143347263336 -367.31942653656006 -10.26272177696228 17.187785804271698 5.871402472257614 2.4451952800154686 -12.093020975589752 2.0137807354331017 -5.971674844622612 12.375771403312683 2.9168761521577835 15.490124523639679 -33.43522131443024 7.607747241854668 0.4457484371960163 1.4079320803284645 0.848811361938715 2.185563649982214 -1.1398380808532238 0.896006254479289 0.5275016650557518 -0.9411789290606976 1.4609912037849426 -8.464560806751251 37.536646127700806 85.0825560092926 -27.1402645111084 -21.9948810338974 59.19440031051636 3.9213885739445686 -8.317018523812294 -0.9023210126906633 -1.2606026139110327 0.4749479703605175 5.633876770734787 1.3188260793685913 -0.5226323241367936 -1.2558944150805473 -0.03762116655707359 -0.47157861292362213 1.2633142434060574 5.8911676704883575 5.259904749691486 0.710621690377593 1.5236873365938663 -0.9304576367139816 -0.9763270989060402 3.3545657247304916 1.5002942830324173 -0.009606583043932915 -1.2491332367062569 -0.9041714854538441 -1.2688588723540306 8.42995896935463 2.8331107646226883 -0.5512192659080029 1.631810199469328 0.02369362860918045 0.1970114791765809 1.5795200318098068 -1.1570946592837572 0.43034031987190247 -1.0145945101976395 0.48290801234543324 0.5007397150620818 16.409389972686768 -21.181135028600693 -121.62933826446533 23.366611003875732 -40.006343722343445 -81.86259090900421 0.7779760658740997 29.371194541454315 -1.6671119257807732 0.1090873684734106 0.5583256110548973 1.0056696273386478 -0.24169511161744595 -2.6546659134328365 0.05170058459043503 2.1889712288975716 -1.0553635843098164 -1.2482094671577215 -6.9704470038414 4.7380149364471436 -1.3221699558198452 1.4554953575134277 2.5016678497195244 1.085606999695301 -2.7546943724155426 -2.1816159412264824 -0.8953810483217239 -3.450639434158802 -1.8442285805940628 -1.109377657994628 -10.541287288069725 0.7185371406376362 -0.6127058481797576 0.9905924275517464 -0.06592911668121815 -2.3889875784516335 0.5273343622684479 -0.45376128517091274 -1.5750370547175407 -0.276917084120214 -0.7601920980960131 -1.1511440947651863 -27.021684050559998 -22.71997332572937 -10.462429001927376 -47.95110583305359 69.79031682014465 55.42485594749451 -0.47802966088056564 5.180942863225937 -11.182087808847427 -0.6191783118993044 3.299386650323868 1.921083927154541 61.71065032482147 -60.32218337059021 71.8215161561966 4.447382837533951 78.30828309059143 -6.530470848083496 2.8986042737960815 8.641826659440994 27.796670794487
2.570797705091536 2.5821781158447266 -63.627005867660046 -6.383931040763855 -23.33743929862976 -357.5027561187744 -9.583291411399841 15.400165915489197 6.6319649666547775 2.3371450044214725 -11.997417658567429 2.333730049431324 -6.347067430615425 12.11736336350441 2.842920944094658 14.147796928882599 -32.65741020441055 8.253609761595726 0.6306465156376362 1.4032311737537384 0.9158865362405777 2.129047494381666 -1.1614347249269485 0.7891700137406588 0.6924509815871716 -0.7919753529131413 1.9343055412173271 -10.883374214172363 40.33237159252167 89.96414959430695 -27.25682258605957 -23.664738535881042 61.5534782409668 2.214224562048912 -10.776113346219063 -1.5391866490244865 -1.2988869566470385 0.06719201803207397 5.249006599187851 0.8325784653425217 -0.755632258951664 -1.0880303755402565 0.5133605562150478 -0.38387699984014034 1.299657253548503 5.864788144826889 5.332413241267204 0.6534914765506983 1.4212182350456715 -0.8701303973793983 -1.358906328678131 3.029419295489788 1.2826628610491753 -0.1465702336281538 -1.910980548709631 -0.7191594131290913 -0.7284437958151102 8.402126356959343 2.635850552469492 -0.308762826025486 1.5941201336681843 -0.19108274951577187 0.4693452129140496 1.4351243153214455 -0.9837987273931503 0.27344249188899994 -0.8084442839026451 0.6267509423196316 0.6641207775101066 10.961343348026276 -19.780182391405106 -112.92705059051514 22.68426239490509 -41.66625827550888 -80.84643065929413 1.991698108613491 31.60616934299469 -1.741674654185772 0.23087826557457447 0.5842657573521137 0.8502680528908968 -0.37264198064804077 -2.5188452191650867 -0.5982888489961624 1.2027176097035408 -1.0783098824322224 -1.1925719026476145 -6.999936550855637 4.6689121797680855 -1.1243660934269428 1.1910284589976072 2.7350297570228577 1.1503387615084648 -2.4998312070965767 -2.3615576326847076 -0.9529327042400837 -4.067572318017483 -2.059851698577404 -1.2082172278314829 -10.555289760231972 0.8546102978289127 -0.20536291413009167 1.4447971992194653 0.23154311813414097 -2.5175264105200768 0.3816910833120346 -0.24909884668886662 -1.3971660286188126 -0.5298410961404443 -0.17668146640062332 -0.6863442622125149 -24.396337866783142 -17.02578842639923 -6.447439044713974 -19.464704990386963 63.49471092224121 27.0397487282753 0.29590196907520294 5.794113278388977 -12.436480522155762 -0.5794223584234715 3.529251627624035 1.6195394285023212 64.55036401748657 -59.411428570747375 70.41530907154083 4.124259799718857 76.92869961261749 -2.5822952203452587 1.5760821104049683 12.067979872226715 27.452972531318665
1.8944922918453813 2.860203504562378 -65.59452038258314 0.7022559642791748 -28.51505219936371 -356.26782417297363 -9.790636897087097 12.498973309993744 9.039682075381279 1.6857589781284332 -11.825360655784607 3.5350314527750015 -6.601584255695343 11.14518329501152 1.3484349846839905 12.032475471496582 -30.75643479824066 7.835924103856087 1.388002261519432 0.6003216281533241 0.8110792189836502 2.220157105475664 -1.1225576139986515 0.648462837561965 0.7342270575463772 -0.5728418938815594 2.1651548892259598 -14.242626428604126 49.713762402534485 102.11670756340027 -27.91874885559082 -27.197854220867157 63.84652018547058 1.8064570426940918 -16.286897510290146 -1.824817769229412 -1.0432065557688475 0.017922520637512207 3.673306703567505 0.0010572094470262527 -0.8913019113242626 -0.4672837257385254 1.2348327040672302 -0.5118503887206316 1.8525756150484085 6.145488023757935 5.064318403601646 0.5227247346192598 1.1002595722675323 -0.18115073908120394 -1.7168306931853294 2.2851374745368958 0.9647201746702194 -0.3115110006183386 -3.9331845939159393 -1.102196965366602 -0.3801367012783885 8.3184514939785 2.4270680733025074 0.4705880396068096 1.11707316711545 -0.6587557308375835 1.2237992696464062 1.4832092821598053 -0.8742593228816986 -0.04504099488258362 -0.478944294154644 0.11208272539079189 0.795461805537343 5.769729316234589 -15.847624093294144 -105.32444715499878 24.52823281288147 -43.279660642147064 -81.97973906993866 1.8338226154446602 38.949628472328186 -6.538878232240677 0.8947737794369459 0.509586688131094 0.2674841322004795 -0.8239578455686569 -2.199348695576191 -0.8149018697440624 0.6023674830794334 -1.206727847456932 -1.258287699893117 -6.8580349534749985 4.628036320209503 -0.7201987691223621 0.5625469889491796 1.6479052975773811 1.2485786899924278 -2.2553270682692528 -1.939418837428093 -1.5380986779928207 -4.114368818700314 -1.9971490278840065 -1.2633071187883615 -10.334244221448898 0.5627004615962505 0.4427758790552616 1.542022917419672 0.31606522388756275 -2.328721024096012 -0.510532334446907 -0.029107248410582542 -0.13091665226966143 -0.8206327445805073 0.6939406972378492 -0.47904470935463905 -10.547805055975914 -10.20828902721405 1.9439242780208588 7.345916032791138 56.19359850883484 1.0080800950527191 0.9887577965855598 5.403155833482742 -17.442201375961304 -0.7645358517765999 3.5229812934994698 1.2271259631961584 67.54274368286133 -62.337820529937744 70.15262961387634 0.28295159339904785 76.93082928657532 0.3896661289036274 0.4565897583961487 18.055896162986755 29.82478827238083
1.1760182613506913 3.1457488536834717 -67.71507196873426 -1.3874906301498413 -37.63983607292175 -354.78042125701904 -9.562254846096039 10.357198566198349 10.85500180721283 1.0578677617013454 -11.53922125697136 5.126771628856659 -7.085516452789307 10.722594559192657 1.2115095555782318 9.593678936362267 -28.274999856948853 7.202710881829262 2.1960839442908764 -0.3172426298260689 0.8175802230834961 1.4423111267387867 -1.2767955288290977 0.3415028750896454 0.8392154239118099 -0.40867854841053486 1.531098447740078 -14.842695593833923 53.445122838020325 110.99216938018799 -28.109094500541687 -32.42368519306183 74.01671648025513 -0.18612418323755264 -24.440669417381287 -4.840483032166958 -0.8777766209095716 0.051710307598114014 1.5570216625928879 -0.6557219848036766 -0.7023868476971984 0.01186709851026535 2.006192598491907 -0.6460391264408827 2.1271536871790886 6.52179591357708 5.541189014911652 0.7241613138467073 0.9415982756763697 0.6672494066879153 -2.3978180810809135 1.767763663083315 0.6482662819325924 -0.3795457351952791 -3.5477250069379807 -1.076947320252657 0.10587936267256737 8.131154850125313 1.988291870802641 1.2492701970040798 0.4254555143415928 -0.830753892660141 1.387842334806919 1.6193384304642677 -0.9909041505306959 0.4121549427509308 -0.6218795478343964 -0.3425130620598793 0.839483393356204 -4.943174421787262 -1.6368985176086426 -93.18856716156006 27.228313386440277 -45.68665623664856 -86.56478226184845 2.812120132148266 38.21364641189575 -7.7045005559921265 1.2719761859625578 0.2443276159465313 0.1874101348221302 -0.7055927999317646 -2.638736441731453 -1.3789536617696285 1.1587843671441078 -1.8241235800087452 -1.5260907635092735 -7.202632427215576 4.6725033223629 -0.021794205531477928 0.08025228045880795 -0.0923529826104641 0.6685536727309227 -2.3420482501387596 -1.4558824338018894 -1.621299795806408 -4.164365194737911 -1.887261439114809 -1.9782542064785957 -10.648659467697144 0.015605594962835312 0.7944406382739544 1.8665514327585697 -0.03742176108062267 -2.1008630096912384 -1.1676430329680443 0.20294641144573689 0.5505183292552829 -0.8934890851378441 1.0082359984517097 0.06673889234662056 -5.4088930785655975 -8.344561457633972 2.0822055637836456 27.944972813129425 51.69309854507446 -13.513560444116592 1.1640817299485207 6.143739223480225 -17.076732963323593 -0.9508790541440248 3.0836984887719154 0.7040280662477016 66.62228465080261 -60.58453559875488 67.79712975025177 2.2639185190200806 78.11747610569 1.9648738391697407 -0.7533010840415955 20.003402531147003 34.802431762218475
